#!OML:ASF F:\VICON\USERDATA\INSTALL\rory3\rory3.ASF
:FULLY-SPECIFIED
:DEGREES
115
root 1.13268 17.366 -5.58302 0.753986 -2.5729 -2.04721
lowerback 6.93272 1.69839 2.42021
upperback 0.381769 2.53018 2.19354
thorax -3.48695 1.23434 0.659976
lowerneck -15.3881 -2.88263 -9.60124
upperneck 22.5592 -2.55922 4.19055
head 9.89926 -1.52838 2.74545
rclavicle -1.12313e-014 -7.95139e-015
rhumerus -24.709 -7.04083 -79.6431
rradius 40.1499
rwrist 2.06205
rhand -14.2004 15.7694
rfingers 7.12502
rthumb 11.9358 -13.8703
lclavicle -1.12313e-014 -7.95139e-015
lhumerus -39.3423 15.8283 81.5943
lradius 18.4843
lwrist -25.0792
lhand -6.29799 28.4397
lfingers 7.12502
lthumb 19.5459 57.4772
rfemur 5.89718 2.18529 25.6676
rtibia 44.0347
rfoot 8.76203 1.45706
rtoes 4.17272
lfemur -26.8479 -1.55038 -19.6599
ltibia 31.6391
lfoot -3.04515 0.0473381
ltoes 2.282
116
root 1.15036 17.3995 -5.37437 0.479791 -2.80676 -1.73743
lowerback 7.10843 1.73183 2.12127
upperback 0.411958 2.55711 2.20158
thorax -3.56738 1.25188 0.827565
lowerneck -15.5307 -2.74918 -9.43288
upperneck 22.6373 -2.36323 4.03339
head 9.9344 -1.4414 2.68808
rclavicle 1.77415e-014 8.74653e-015
rhumerus -24.8118 -7.29113 -79.6106
rradius 39.5025
rwrist 2.13333
rhand -14.2364 15.8443
rfingers 7.12502
rthumb 11.9012 -13.7975
lclavicle 1.77415e-014 8.74653e-015
lhumerus -39.5177 15.0471 82.1508
lradius 19.0592
lwrist -24.0267
lhand -6.09282 29.1401
lfingers 7.12502
lthumb 19.7431 58.1574
rfemur 4.4132 2.13191 25.0384
rtibia 47.0413
rfoot 11.4259 1.00745
rtoes 13.6603
lfemur -25.5845 -1.46905 -20.1601
ltibia 31.3637
lfoot -3.75174 0.287888
ltoes 1.35751
117
root 1.16671 17.4317 -5.17215 0.27796 -2.83772 -1.24357
lowerback 7.17508 1.72166 1.68462
upperback 0.458785 2.50669 2.12864
thorax -3.57137 1.23344 1.00009
lowerneck -15.5389 -2.5467 -9.16354
upperneck 22.5665 -2.12423 3.93484
head 9.88666 -1.31755 2.63897
rclavicle -1.39149e-015 -7.95139e-016
rhumerus -24.9922 -7.62966 -79.5772
rradius 39.0973
rwrist 2.05954
rhand -14.0059 15.9192
rfingers 7.12502
rthumb 12.1234 -13.7095
lclavicle -1.39149e-015 -7.95139e-016
lhumerus -39.4679 14.3316 82.6271
lradius 19.4179
lwrist -23.1179
lhand -5.73243 30.1875
lfingers 7.12502
lthumb 20.0896 59.1688
rfemur 2.66891 1.83205 24.1885
rtibia 50.065
rfoot 12.8604 0.554036
rtoes 19.7964
lfemur -24.3858 -1.65896 -20.8402
ltibia 30.9596
lfoot -4.21768 0.544857
ltoes 0.291736
118
root 1.18148 17.4567 -4.97809 0.0867529 -2.80678 -0.739581
lowerback 7.19956 1.65527 1.20085
upperback 0.559099 2.37533 2.07444
thorax -3.49742 1.17587 1.22905
lowerneck -15.6331 -2.3982 -9.12584
upperneck 22.6182 -1.91877 3.9414
head 9.90671 -1.21877 2.66275
rclavicle -1.58034e-014 -1.98785e-014
rhumerus -25.1851 -7.8705 -79.5828
rradius 38.8389
rwrist 2.30098
rhand -13.9485 15.8472
rfingers 7.12502
rthumb 12.1787 -13.7783
lclavicle -1.58034e-014 -1.98785e-014
lhumerus -39.0663 14.0487 82.919
lradius 19.3023
lwrist -22.4679
lhand -6.76023 28.0819
lfingers 7.12502
lthumb 19.1014 57.1639
rfemur 0.99805 1.41154 23.3418
rtibia 53.0411
rfoot 15.6721 1.34283
rtoes 18.1156
lfemur -23.2342 -1.82759 -21.5299
ltibia 30.5325
lfoot -4.59921 0.877998
ltoes 0.565101
119
root 1.19723 17.48 -4.78254 -0.140324 -2.84534 -0.230052
lowerback 7.24176 1.59435 0.719312
upperback 0.685477 2.25118 2.01251
thorax -3.40432 1.12102 1.44822
lowerneck -15.8708 -2.33777 -9.17572
upperneck 22.7811 -1.8054 3.96845
head 10.0023 -1.16893 2.6978
rclavicle -1.54555e-014 7.95139e-016
rhumerus -25.2815 -7.84628 -79.6538
rradius 38.3451
rwrist 2.5404
rhand -14.3922 15.8251
rfingers 7.12502
rthumb 11.7509 -13.8253
lclavicle -1.54555e-014 7.95139e-016
lhumerus -38.7048 13.6547 83.2708
lradius 19.475
lwrist -21.7945
lhand -7.83002 26.0705
lfingers 7.12502
lthumb 18.0724 55.2508
rfemur -0.578152 0.881847 22.4641
rtibia 55.9186
rfoot 15.9085 1.37488
rtoes 16.2016
lfemur -22.06 -1.84248 -22.2415
ltibia 30.14
lfoot -5.20452 1.18685
ltoes 1.34109
120
root 1.21095 17.4992 -4.59032 -0.341366 -2.87298 0.150523
lowerback 7.30754 1.55015 0.387505
upperback 0.718235 2.1639 1.95044
thorax -3.41513 1.0819 1.57779
lowerneck -15.7639 -2.35954 -9.14688
upperneck 22.8268 -1.831 3.87092
head 9.99973 -1.19146 2.6556
rclavicle -3.39425e-014 -1.27222e-014
rhumerus -25.4333 -8.08256 -79.7029
rradius 37.6097
rwrist 2.88908
rhand -14.8351 15.9726
rfingers 7.12502
rthumb 11.3238 -13.7017
lclavicle -3.39425e-014 -1.27222e-014
lhumerus -38.62 12.9107 83.681
lradius 19.9351
lwrist -20.9305
lhand -8.09121 25.817
lfingers 7.12502
lthumb 17.8211 55.0205
rfemur -2.2291 0.311497 21.7879
rtibia 58.6364
rfoot 14.6386 0.541823
rtoes 13.2852
lfemur -20.955 -1.8224 -22.8061
ltibia 29.8337
lfoot -5.74266 1.36558
ltoes 1.11456
121
root 1.22105 17.513 -4.39904 -0.506199 -2.815 0.403272
lowerback 7.31886 1.46895 0.161096
upperback 0.671857 2.03833 1.93957
thorax -3.47367 1.02299 1.7057
lowerneck -15.2401 -2.38948 -9.32024
upperneck 22.7169 -1.87865 3.86349
head 9.86778 -1.23161 2.67497
rclavicle 4.0403e-014 9.54166e-015
rhumerus -25.8454 -8.29391 -79.6993
rradius 37.1862
rwrist 3.14656
rhand -14.7247 15.484
rfingers 7.12502
rthumb 11.4303 -14.1844
lclavicle 4.0403e-014 9.54166e-015
lhumerus -38.5483 12.1799 84.0643
lradius 20.0242
lwrist -19.688
lhand -8.49354 26.2993
lfingers 7.12502
lthumb 17.4339 55.5375
rfemur -3.83135 -0.314304 21.3163
rtibia 61.128
rfoot 13.2209 -0.685478
rtoes 11.354
lfemur -19.8959 -1.87962 -23.2083
ltibia 29.57
lfoot -6.11339 1.56357
ltoes 1.32678
122
root 1.23046 17.5283 -4.20646 -0.647951 -2.74017 0.586352
lowerback 7.39188 1.328 -0.0563767
upperback 0.599753 1.83853 2.0271
thorax -3.59304 0.928308 1.93697
lowerneck -15.0216 -2.31177 -9.65217
upperneck 22.8455 -1.73101 3.95543
head 9.86671 -1.18624 2.78461
rclavicle 2.08724e-015 -6.36111e-015
rhumerus -26.2367 -8.25327 -79.6476
rradius 36.8361
rwrist 3.3326
rhand -14.5772 14.9519
rfingers 7.12502
rthumb 11.5725 -14.7086
lclavicle 2.08724e-015 -6.36111e-015
lhumerus -38.4243 12.0484 84.2345
lradius 20.0473
lwrist -19.2244
lhand -8.32766 27.0322
lfingers 7.12502
lthumb 17.5935 56.2562
rfemur -5.34663 -1.00866 20.9137
rtibia 63.3464
rfoot 11.3334 -1.7844
rtoes 10.7554
lfemur -18.8524 -1.77739 -23.5425
ltibia 29.2787
lfoot -6.66245 1.63062
ltoes 1.1925
123
root 1.24502 17.5395 -4.01709 -0.82393 -2.61501 0.830347
lowerback 7.59859 1.19413 -0.194794
upperback 0.507395 1.65152 2.00318
thorax -3.80109 0.838632 2.00522
lowerneck -15.0167 -2.2248 -9.63883
upperneck 23.0985 -1.61604 3.95639
head 9.94687 -1.13756 2.80172
rclavicle -2.88238e-015 -7.95139e-016
rhumerus -26.571 -8.42543 -79.6191
rradius 36.254
rwrist 3.73996
rhand -14.6202 15.107
rfingers 7.12502
rthumb 11.531 -14.5558
lclavicle -2.88238e-015 -7.95139e-016
lhumerus -38.4815 11.572 84.3978
lradius 20.4678
lwrist -18.8576
lhand -8.3667 26.5582
lfingers 7.12502
lthumb 17.556 55.7856
rfemur -6.8292 -1.82847 20.3949
rtibia 65.3445
rfoot 9.54589 -2.7205
rtoes 11.4467
lfemur -17.7273 -1.68448 -23.9678
ltibia 28.9095
lfoot -7.27749 1.59838
ltoes 0.781354
